#Comment line ignore any data following # character 
#Hierarchical Translation and Rotation (.htr) file 
[Header]	
#Header keywords are followed by a single value 
FileType HTR		#Single word string
DataType HTRS		#Translation followed by rotation and scale data
FileVersion 1		#integer
NumSegments 84		#integer
NumFrames 2		#integer
DataFrameRate 30		#integer, data frame rate in this file
EulerRotationOrder ZYX
CalibrationUnits mm
RotationUnits Degrees
GlobalAxisofGravity Y
BoneLengthAxis Y
ScaleFactor 1.00
[SegmentNames&Hierarchy]
#CHILD	PARENT
MASTER GLOBAL
root MASTER
chest root
L_mid_tent01 root
R_mid_tent01 root
spine01 root
Bip01_Neck chest
L_humerus chest
R_humerus chest
weapon_bone chest
Bip01_Head Bip01_Neck
eye_left_bone Bip01_Head
eye_right_bone Bip01_Head
L_forearm L_humerus
L_front_hand L_forearm
L_weapon_bone L_forearm
L_front_hand01_01 L_front_hand
L_front_hand02_01 L_front_hand
L_front_hand03_01 L_front_hand
L_front_hand01_02 L_front_hand01_01
L_front_hand02_02 L_front_hand02_01
L_front_hand03_02 L_front_hand03_01
R_forearm R_humerus
R_front_hand R_forearm
R_weapon_bone R_forearm
R_front_hand01_01 R_front_hand
R_front_hand02_01 R_front_hand
R_front_hand03_01 R_front_hand
R_front_hand01_02 R_front_hand01_01
R_front_hand02_02 R_front_hand02_01
R_front_hand03_02 R_front_hand03_01
null_rope01_connect L_mid_tent01
Rope1_Seg01 null_rope01_connect
Rope1_Seg02 Rope1_Seg01
Rope1_Seg03 Rope1_Seg02
Rope1_Seg04 Rope1_Seg03
Rope1_Seg05 Rope1_Seg04
Rope1_Seg06 Rope1_Seg05
Rope1_Seg07 Rope1_Seg06
Rope1_Seg09 Rope1_Seg07
L_mid_hand01 Rope1_Seg09
L_mid_hand02 Rope1_Seg09
L_mid_hand03 Rope1_Seg09
null_rope02_connect R_mid_tent01
Rope2_Seg01 null_rope02_connect
Rope2_Seg02 Rope2_Seg01
Rope2_Seg03 Rope2_Seg02
Rope2_Seg04 Rope2_Seg03
Rope2_Seg05 Rope2_Seg04
Rope2_Seg06 Rope2_Seg05
Rope2_Seg07 Rope2_Seg06
Rope2_Seg09 Rope2_Seg07
R_mid_hand01 Rope2_Seg09
R_mid_hand02 Rope2_Seg09
R_mid_hand03 Rope2_Seg09
spine02 spine01
spine03 spine02
pelvis spine03
null_rope03_connect pelvis
null_rope04_connect pelvis
Rope3_Seg01 null_rope03_connect
Rope3_Seg02 Rope3_Seg01
Rope3_Seg03 Rope3_Seg02
Rope3_Seg04 Rope3_Seg03
Rope3_Seg05 Rope3_Seg04
Rope3_Seg06 Rope3_Seg05
Rope3_Seg07 Rope3_Seg06
Rope3_Seg08 Rope3_Seg07
Rope3_Seg09 Rope3_Seg08
R_rear_hand01 Rope3_Seg09
R_rear_hand02 Rope3_Seg09
R_rear_hand03 Rope3_Seg09
Rope4_Seg01 null_rope04_connect
Rope4_Seg02 Rope4_Seg01
Rope4_Seg03 Rope4_Seg02
Rope4_Seg04 Rope4_Seg03
Rope4_Seg05 Rope4_Seg04
Rope4_Seg06 Rope4_Seg05
Rope4_Seg07 Rope4_Seg06
Rope4_Seg08 Rope4_Seg07
Rope4_Seg09 Rope4_Seg08
L_rear_hand01 Rope4_Seg09
L_rear_hand02 Rope4_Seg09
L_rear_hand03 Rope4_Seg09
[BasePosition]
#SegmentName Tx, Ty, Tz, Rx, Ry, Rz, BoneLength
MASTER 0.000000 0.000000 0.000000 -90.000000 0.000000 0.000000 10.000000 
root 0.000000 0.000000 0.000000 0.000000 0.000000 0.000000 10.000000 
chest 0.000000 0.000000 0.000000 0.000000 0.000000 0.000000 10.000000 
L_mid_tent01 0.000000 0.000000 0.000000 0.000000 0.000000 0.000000 10.000000 
R_mid_tent01 0.000000 0.000000 0.000000 0.000000 0.000000 0.000000 10.000000 
spine01 0.000000 0.000000 0.000000 0.000000 0.000000 0.000000 10.000000 
Bip01_Neck 0.000000 0.000000 0.000000 0.000000 0.000000 0.000000 10.000000 
L_humerus 0.000000 0.000000 0.000000 0.000000 0.000000 0.000000 10.000000 
R_humerus 0.000000 0.000000 0.000000 0.000000 0.000000 0.000000 10.000000 
weapon_bone 0.000000 0.000000 0.000000 0.000000 0.000000 0.000000 10.000000 
Bip01_Head 0.000000 0.000000 0.000000 0.000000 0.000000 0.000000 10.000000 
eye_left_bone 0.000000 0.000000 0.000000 0.000000 0.000000 0.000000 10.000000 
eye_right_bone 0.000000 0.000000 0.000000 0.000000 0.000000 0.000000 10.000000 
L_forearm 0.000000 0.000000 0.000000 0.000000 0.000000 0.000000 10.000000 
L_front_hand 0.000000 0.000000 0.000000 0.000000 0.000000 0.000000 10.000000 
L_weapon_bone 0.000000 0.000000 0.000000 0.000000 0.000000 0.000000 10.000000 
L_front_hand01_01 0.000000 0.000000 0.000000 0.000000 0.000000 0.000000 10.000000 
L_front_hand02_01 0.000000 0.000000 0.000000 0.000000 0.000000 0.000000 10.000000 
L_front_hand03_01 0.000000 0.000000 0.000000 0.000000 0.000000 0.000000 10.000000 
L_front_hand01_02 0.000000 0.000000 0.000000 0.000000 0.000000 0.000000 10.000000 
L_front_hand02_02 0.000000 0.000000 0.000000 0.000000 0.000000 0.000000 10.000000 
L_front_hand03_02 0.000000 0.000000 0.000000 0.000000 0.000000 0.000000 10.000000 
R_forearm 0.000000 0.000000 0.000000 0.000000 0.000000 0.000000 10.000000 
R_front_hand 0.000000 0.000000 0.000000 0.000000 0.000000 0.000000 10.000000 
R_weapon_bone 0.000000 0.000000 0.000000 0.000000 0.000000 0.000000 10.000000 
R_front_hand01_01 0.000000 0.000000 0.000000 0.000000 0.000000 0.000000 10.000000 
R_front_hand02_01 0.000000 0.000000 0.000000 0.000000 0.000000 0.000000 10.000000 
R_front_hand03_01 0.000000 0.000000 0.000000 0.000000 0.000000 0.000000 10.000000 
R_front_hand01_02 0.000000 0.000000 0.000000 0.000000 0.000000 0.000000 10.000000 
R_front_hand02_02 0.000000 0.000000 0.000000 0.000000 0.000000 0.000000 10.000000 
R_front_hand03_02 0.000000 0.000000 0.000000 0.000000 0.000000 0.000000 10.000000 
null_rope01_connect 0.000000 0.000000 0.000000 0.000000 0.000000 0.000000 10.000000 
Rope1_Seg01 0.000000 0.000000 0.000000 0.000000 0.000000 0.000000 10.000000 
Rope1_Seg02 0.000000 0.000000 0.000000 0.000000 0.000000 0.000000 10.000000 
Rope1_Seg03 0.000000 0.000000 0.000000 0.000000 0.000000 0.000000 10.000000 
Rope1_Seg04 0.000000 0.000000 0.000000 0.000000 0.000000 0.000000 10.000000 
Rope1_Seg05 0.000000 0.000000 0.000000 0.000000 0.000000 0.000000 10.000000 
Rope1_Seg06 0.000000 0.000000 0.000000 0.000000 0.000000 0.000000 10.000000 
Rope1_Seg07 0.000000 0.000000 0.000000 0.000000 0.000000 0.000000 10.000000 
Rope1_Seg09 0.000000 0.000000 0.000000 0.000000 0.000000 0.000000 10.000000 
L_mid_hand01 0.000000 0.000000 0.000000 0.000000 0.000000 0.000000 10.000000 
L_mid_hand02 0.000000 0.000000 0.000000 0.000000 0.000000 0.000000 10.000000 
L_mid_hand03 0.000000 0.000000 0.000000 0.000000 0.000000 0.000000 10.000000 
null_rope02_connect 0.000000 0.000000 0.000000 0.000000 0.000000 0.000000 10.000000 
Rope2_Seg01 0.000000 0.000000 0.000000 0.000000 0.000000 0.000000 10.000000 
Rope2_Seg02 0.000000 0.000000 0.000000 0.000000 0.000000 0.000000 10.000000 
Rope2_Seg03 0.000000 0.000000 0.000000 0.000000 0.000000 0.000000 10.000000 
Rope2_Seg04 0.000000 0.000000 0.000000 0.000000 0.000000 0.000000 10.000000 
Rope2_Seg05 0.000000 0.000000 0.000000 0.000000 0.000000 0.000000 10.000000 
Rope2_Seg06 0.000000 0.000000 0.000000 0.000000 0.000000 0.000000 10.000000 
Rope2_Seg07 0.000000 0.000000 0.000000 0.000000 0.000000 0.000000 10.000000 
Rope2_Seg09 0.000000 0.000000 0.000000 0.000000 0.000000 0.000000 10.000000 
R_mid_hand01 0.000000 0.000000 0.000000 0.000000 0.000000 0.000000 10.000000 
R_mid_hand02 0.000000 0.000000 0.000000 0.000000 0.000000 0.000000 10.000000 
R_mid_hand03 0.000000 0.000000 0.000000 0.000000 0.000000 0.000000 10.000000 
spine02 0.000000 0.000000 0.000000 0.000000 0.000000 0.000000 10.000000 
spine03 0.000000 0.000000 0.000000 0.000000 0.000000 0.000000 10.000000 
pelvis 0.000000 0.000000 0.000000 0.000000 0.000000 0.000000 10.000000 
null_rope03_connect 0.000000 0.000000 0.000000 0.000000 0.000000 0.000000 10.000000 
null_rope04_connect 0.000000 0.000000 0.000000 0.000000 0.000000 0.000000 10.000000 
Rope3_Seg01 0.000000 0.000000 0.000000 0.000000 0.000000 0.000000 10.000000 
Rope3_Seg02 0.000000 0.000000 0.000000 0.000000 0.000000 0.000000 10.000000 
Rope3_Seg03 0.000000 0.000000 0.000000 0.000000 0.000000 0.000000 10.000000 
Rope3_Seg04 0.000000 0.000000 0.000000 0.000000 0.000000 0.000000 10.000000 
Rope3_Seg05 0.000000 0.000000 0.000000 0.000000 0.000000 0.000000 10.000000 
Rope3_Seg06 0.000000 0.000000 0.000000 0.000000 0.000000 0.000000 10.000000 
Rope3_Seg07 0.000000 0.000000 0.000000 0.000000 0.000000 0.000000 10.000000 
Rope3_Seg08 0.000000 0.000000 0.000000 0.000000 0.000000 0.000000 10.000000 
Rope3_Seg09 0.000000 0.000000 0.000000 0.000000 0.000000 0.000000 10.000000 
R_rear_hand01 0.000000 0.000000 0.000000 0.000000 0.000000 0.000000 10.000000 
R_rear_hand02 0.000000 0.000000 0.000000 0.000000 0.000000 0.000000 10.000000 
R_rear_hand03 0.000000 0.000000 0.000000 0.000000 0.000000 0.000000 10.000000 
Rope4_Seg01 0.000000 0.000000 0.000000 0.000000 0.000000 0.000000 10.000000 
Rope4_Seg02 0.000000 0.000000 0.000000 0.000000 0.000000 0.000000 10.000000 
Rope4_Seg03 0.000000 0.000000 0.000000 0.000000 0.000000 0.000000 10.000000 
Rope4_Seg04 0.000000 0.000000 0.000000 0.000000 0.000000 0.000000 10.000000 
Rope4_Seg05 0.000000 0.000000 0.000000 0.000000 0.000000 0.000000 10.000000 
Rope4_Seg06 0.000000 0.000000 0.000000 0.000000 0.000000 0.000000 10.000000 
Rope4_Seg07 0.000000 0.000000 0.000000 0.000000 0.000000 0.000000 10.000000 
Rope4_Seg08 0.000000 0.000000 0.000000 0.000000 0.000000 0.000000 10.000000 
Rope4_Seg09 0.000000 0.000000 0.000000 0.000000 0.000000 0.000000 10.000000 
L_rear_hand01 0.000000 0.000000 0.000000 0.000000 0.000000 0.000000 10.000000 
L_rear_hand02 0.000000 0.000000 0.000000 0.000000 0.000000 0.000000 10.000000 
L_rear_hand03 0.000000 0.000000 0.000000 0.000000 0.000000 0.000000 10.000000 
#Beginning of Data. Separated by tabs
#Fr	Tx	Ty	Tz	Rx	Ry	Rz	SF
[MASTER]
5 0.000000 0.000000 0.000000 0.001660 0.001660 0.001660 0.000000
6 0.000000 0.000000 0.000000 0.001660 0.001660 0.001660 0.000000
[root]
5 -18.096214 -5.447803 1455.172852 -89.930687 -11.822441 -90.497337 1455.295532
6 -18.932732 -9.796091 1458.562012 -89.085258 -11.968521 -90.977715 1458.717896
[chest]
5 -84.512650 -34.090519 0.000000 -1.822701 0.595667 -177.903870 91.129311
6 -84.512650 -34.090519 0.000000 -1.797495 0.764766 -175.946869 91.129311
[L_mid_tent01]
5 27.299118 22.179173 -249.918701 -1.510745 11.511387 63.537636 252.381683
6 27.299124 22.179180 -249.918716 1.942125 9.451056 73.779839 252.381714
[R_mid_tent01]
5 23.228794 24.509907 226.238495 171.869110 -13.098793 62.953785 228.744751
6 23.228794 24.509907 226.238495 167.887283 -10.253795 70.452133 228.744751
[spine01]
5 -0.361383 -0.195265 0.000000 -0.000001 -0.000007 22.052340 0.410763
6 -0.361383 -0.195265 0.000000 -0.000001 -0.000007 22.052340 0.410763
[Bip01_Neck]
5 165.484543 71.581718 0.000119 176.643677 -1.657967 43.431911 180.302734
6 165.484543 71.581718 0.000119 176.643677 -1.657967 43.431911 180.302734
[L_humerus]
5 -13.983130 -135.272980 -120.471481 179.009445 -4.538726 -161.534363 181.680161
6 -13.983130 -135.272980 -120.471481 179.387024 -5.589376 -161.069901 181.680161
[R_humerus]
5 -13.983309 -135.273102 125.287651 179.564301 3.291252 -156.930481 184.909012
6 -13.983309 -135.273102 125.287651 179.143890 4.437857 -156.594070 184.909012
[weapon_bone]
5 235.964890 -300.705902 0.000000 0.000000 -89.951546 -128.212341 382.234833
6 235.964890 -300.705902 0.000000 0.000000 -89.951546 -128.212341 382.234833
[Bip01_Head]
5 213.432922 185.747223 11.366791 4.987260 10.061257 -43.762226 283.169281
6 213.439621 185.728439 11.609297 4.982271 9.952399 -43.763496 283.171844
[eye_left_bone]
5 -24.626970 125.451866 -64.772606 0.000000 -90.000000 -99.840431 143.318359
6 -24.626970 125.451866 -64.772606 0.000000 -90.000000 -99.840431 143.318359
[eye_right_bone]
5 -24.626970 125.451866 64.327362 0.000000 -89.965736 80.156380 143.117676
6 -24.626970 125.451866 64.327362 0.000000 -89.965736 80.156380 143.117676
[L_forearm]
5 322.776093 0.000000 -0.000119 0.000396 -0.002314 -109.419975 322.776093
6 322.776093 0.000000 -0.000119 0.000396 -0.002314 -109.419975 322.776093
[L_front_hand]
5 241.149185 -0.042021 -3.300071 -178.667953 -1.835447 -27.422342 241.171753
6 241.149185 -0.042021 -3.300071 -178.667953 -1.835447 -27.422350 241.171753
[L_weapon_bone]
5 156.183838 0.000000 0.000000 0.000014 0.000007 0.000001 156.183838
6 156.183838 0.000000 0.000000 0.000014 0.000007 0.000001 156.183838
[L_front_hand01_01]
5 86.095154 20.947098 -0.655860 -0.358124 -0.483585 74.301987 88.609184
6 86.095154 20.947098 -0.655860 -0.349230 -0.490139 73.139862 88.609184
[L_front_hand02_01]
5 86.935165 -11.437475 24.513514 152.741348 -59.405804 -59.444736 91.046425
6 86.935165 -11.437475 24.513514 151.025055 -58.854893 -57.448074 91.046425
[L_front_hand03_01]
5 86.637497 -14.123976 -20.424902 -152.381119 57.628048 -60.890831 90.126129
6 86.637497 -14.123976 -20.424902 -150.781433 57.074539 -58.996449 90.126129
[L_front_hand01_02]
5 71.020905 -0.000179 0.000030 0.000319 -0.002325 -105.611748 71.020905
6 71.020905 -0.000179 0.000030 0.000318 -0.002326 -105.574486 71.020905
[L_front_hand02_02]
5 71.020927 -0.000119 0.000060 0.000319 -0.002325 -105.611748 71.020927
6 71.020927 -0.000119 0.000060 0.000318 -0.002326 -105.574486 71.020927
[L_front_hand03_02]
5 71.020905 -0.000060 0.000060 0.000319 -0.002325 -105.611748 71.020905
6 71.020905 -0.000060 0.000060 0.000318 -0.002326 -105.574486 71.020905
[R_forearm]
5 322.776428 -0.000060 0.000030 0.202103 0.065158 -108.062805 322.776428
6 322.776428 -0.000060 0.000030 0.202103 0.065158 -108.062805 322.776428
[R_front_hand]
5 238.847015 -0.006795 2.210259 -2.635298 -10.645461 -26.312506 238.857239
6 238.847015 -0.006795 2.210259 -2.635298 -10.645461 -26.312506 238.857239
[R_weapon_bone]
5 155.664093 0.002503 -0.000030 0.003487 0.001180 -90.988930 155.664078
6 155.664093 0.002503 -0.000030 0.003487 0.001180 -90.988930 155.664078
[R_front_hand01_01]
5 87.624611 14.231146 22.918642 -153.171539 -59.529896 60.052429 91.683487
6 87.624611 14.231146 22.918642 -151.601074 -59.040489 58.224773 91.683487
[R_front_hand02_01]
5 89.356956 14.367283 -19.491137 153.232147 57.885738 62.134083 92.579636
6 89.356956 14.367283 -19.491137 151.761566 57.399368 60.393955 92.579636
[R_front_hand03_01]
5 87.286232 -22.307278 -0.143439 0.154710 -0.427505 -74.818466 90.091743
6 87.286232 -22.307278 -0.143439 0.146836 -0.431871 -73.769867 90.091743
[R_front_hand01_02]
5 71.020905 0.000060 0.000119 0.002323 -0.000334 106.381714 71.020905
6 71.020905 0.000060 0.000119 0.002323 -0.000334 106.381721 71.020905
[R_front_hand02_02]
5 71.020844 -0.000030 -0.000119 0.002323 -0.000334 106.381714 71.020836
6 71.020844 -0.000030 -0.000119 0.002323 -0.000334 106.381721 71.020836
[R_front_hand03_02]
5 71.020905 0.000000 0.000030 0.002323 -0.000334 106.381714 71.020905
6 71.020905 0.000000 0.000030 0.002323 -0.000334 106.381721 71.020905
[null_rope01_connect]
5 328.732483 0.000000 -0.000238 -147.104736 -78.191750 -174.810028 328.732483
6 328.732483 0.000000 -0.000238 -133.109940 -80.462936 161.369095 328.732483
[Rope1_Seg01]
5 0.000000 0.000000 0.000000 -80.223923 48.108089 -93.151413 0.000000
6 0.000000 0.000000 0.000000 -57.427219 44.110435 -77.844597 0.000000
[Rope1_Seg02]
5 139.999863 -0.000179 0.000000 -9.511766 6.914307 -0.236187 139.999863
6 139.999863 -0.000179 0.000000 -18.591036 14.599298 3.476765 139.999863
[Rope1_Seg03]
5 139.999924 0.000060 -0.000060 -13.740848 7.179390 1.401649 139.999924
6 139.999924 0.000060 -0.000060 -21.431355 12.398211 10.877736 139.999924
[Rope1_Seg04]
5 139.999924 -0.000060 -0.000119 -16.491554 6.248544 4.301898 139.999924
6 139.999924 -0.000060 -0.000119 -13.121645 6.133453 11.502833 139.999924
[Rope1_Seg05]
5 139.999832 0.000119 -0.000060 -18.992256 8.460894 1.691401 139.999832
6 139.999832 0.000119 -0.000060 -8.043324 10.070843 -2.634392 139.999832
[Rope1_Seg06]
5 139.999954 0.000119 -0.000060 -22.905340 8.519466 2.002208 139.999954
6 139.999954 0.000119 -0.000060 -10.015639 10.035213 -3.970115 139.999954
[Rope1_Seg07]
5 139.999985 0.000060 0.000000 -15.287285 3.874111 3.886310 139.999985
6 139.999985 0.000060 0.000000 -9.405336 5.177543 0.221231 139.999985
[Rope1_Seg09]
5 121.602913 0.000119 -0.000089 -89.793175 -1.359789 0.847147 121.602913
6 121.602913 0.000119 -0.000089 -89.793175 -1.359789 0.847147 121.602913
[L_mid_hand01]
5 103.859421 1.038730 8.195221 115.408714 -54.701878 -21.722239 104.187431
6 103.859421 1.038730 8.195221 112.493240 -49.600185 -18.031643 104.187431
[L_mid_hand02]
5 105.572853 -4.139662 -10.864139 -156.174301 38.799171 -54.227280 106.211075
6 105.572853 -4.139662 -10.864139 -152.303986 36.371010 -47.886745 106.211075
[L_mid_hand03]
5 104.641464 17.579376 -3.913581 -10.556284 15.605943 59.190193 106.179977
6 104.641464 17.579376 -3.913581 -12.027911 14.512395 53.523804 106.179977
[null_rope02_connect]
5 328.732849 0.000179 -0.000119 -109.723488 75.057220 30.440121 328.732849
6 328.732849 0.000179 -0.000119 -101.825241 74.796951 45.422329 328.732849
[Rope2_Seg01]
5 0.000095 0.000153 0.000017 129.485733 49.233372 -96.704041 0.000181
6 0.000095 0.000153 0.000021 107.416412 45.892513 -122.982841 0.000181
[Rope2_Seg02]
5 139.999741 -0.000060 -0.000119 9.318791 8.961919 -14.592074 139.999756
6 139.999741 -0.000060 -0.000119 6.600584 6.433208 -18.849255 139.999756
[Rope2_Seg03]
5 140.000107 0.000030 0.000000 21.632813 6.319294 -17.014563 140.000107
6 140.000107 0.000030 0.000000 17.663404 4.506720 -25.161827 140.000107
[Rope2_Seg04]
5 139.999802 0.000000 -0.000060 30.790134 -1.169604 -16.186766 139.999802
6 139.999802 0.000000 -0.000060 23.023832 -4.323683 -21.876024 139.999802
[Rope2_Seg05]
5 139.999985 -0.000060 0.000119 10.971114 -2.006028 -5.350771 139.999985
6 139.999985 -0.000060 0.000119 7.562344 -1.999302 -7.213916 139.999985
[Rope2_Seg06]
5 139.999893 -0.000030 -0.000119 0.760247 2.663947 -1.633066 139.999893
6 139.999893 -0.000030 -0.000119 1.444263 4.017863 -3.333369 139.999893
[Rope2_Seg07]
5 139.999893 0.000060 -0.000060 3.451534 1.440675 -2.261007 139.999893
6 139.999893 0.000060 -0.000060 3.137451 2.952079 -3.961795 139.999893
[Rope2_Seg09]
5 121.338966 0.000089 -0.000060 33.793236 -1.359788 -0.847141 121.338966
6 121.338966 0.000089 -0.000060 33.793236 -1.359788 -0.847141 121.338966
[R_mid_hand01]
5 104.680779 11.144459 -10.335981 -22.984863 42.734222 60.718647 105.778534
6 104.680779 11.144459 -10.335981 -25.740593 41.350704 56.606117 105.778534
[R_mid_hand02]
5 104.070427 2.443552 8.231699 58.419525 -61.729698 28.969110 104.424065
6 104.070427 2.443552 8.231699 61.371151 -58.827457 25.571609 104.424065
[R_mid_hand03]
5 106.028137 -11.221827 -5.996406 -175.069138 15.041782 -68.893333 106.788818
6 106.028137 -11.221827 -5.996406 -174.179749 14.727765 -65.439743 106.788818
[spine02]
5 129.756927 0.001550 0.000119 0.360061 -4.044797 -12.915058 129.756927
6 129.756927 0.001550 0.000119 0.360061 -4.044797 -12.915058 129.756927
[spine03]
5 78.614059 0.081550 -4.899012 1.896495 3.831288 16.473045 78.766594
6 78.614059 0.081567 -4.899012 1.896495 3.831288 16.473045 78.766594
[pelvis]
5 169.435242 0.051022 0.000000 -0.060465 -0.180225 14.087930 169.435257
6 169.435242 0.051022 0.000000 -0.060465 -0.180225 14.087929 169.435257
[null_rope03_connect]
5 -1.257226 -2.466202 137.391083 -19.051916 -88.737160 81.191536 137.418976
6 -1.257226 -2.466202 137.391083 -19.393923 -87.857346 81.688705 137.418976
[null_rope04_connect]
5 -1.259640 -2.480268 -137.844437 -19.051916 -88.737160 81.191536 137.872513
6 -1.259640 -2.480268 -137.844437 -19.393923 -87.857346 81.688705 137.872513
[Rope3_Seg01]
5 -0.000010 0.000000 -0.000068 -145.373810 43.942444 -93.156143 0.000068
6 -0.000010 0.000000 -0.000085 -141.302475 43.103813 -87.557327 0.000085
[Rope3_Seg02]
5 139.999924 -0.000119 0.000060 -0.904928 -10.164565 -6.182270 139.999924
6 139.999924 -0.000119 0.000060 -4.398272 -15.597787 3.567023 139.999924
[Rope3_Seg03]
5 139.999924 -0.000119 0.000119 0.521657 -16.161676 -7.670842 139.999924
6 139.999924 -0.000119 0.000119 -3.694827 -20.671335 5.143346 139.999924
[Rope3_Seg04]
5 139.999924 0.000119 0.000000 1.766754 -11.531396 -7.504606 139.999924
6 139.999924 0.000119 0.000000 -1.006147 -19.153921 4.661725 139.999924
[Rope3_Seg05]
5 139.999924 -0.000238 0.000060 -3.960870 16.529005 -3.524503 139.999924
6 139.999924 -0.000238 0.000060 -1.493369 9.794793 -8.946495 139.999924
[Rope3_Seg06]
5 139.999893 -0.000119 -0.000060 -0.812943 9.569715 -1.252611 139.999893
6 139.999893 -0.000119 -0.000060 -4.296719 21.303711 -14.526900 139.999893
[Rope3_Seg07]
5 139.999771 0.000060 -0.000119 0.146659 4.356371 -1.002435 139.999771
6 139.999771 0.000060 -0.000119 -0.673551 8.457808 -6.036716 139.999771
[Rope3_Seg08]
5 139.999985 -0.000060 0.000000 0.383456 2.610372 -0.612936 139.999985
6 139.999985 -0.000060 0.000000 -0.022219 4.707700 -3.350788 139.999985
[Rope3_Seg09]
5 90.185997 -0.000179 -0.000060 89.793228 -1.359877 -0.847183 90.185997
6 90.185997 -0.000179 -0.000060 89.793228 -1.359877 -0.847183 90.185997
[R_rear_hand01]
5 103.366196 -6.073594 -10.757982 -173.471771 23.840061 -63.594990 104.101845
6 103.366196 -6.073594 -10.757982 -171.684540 23.302565 -59.125771 104.101845
[R_rear_hand02]
5 100.509819 12.039542 -7.992327 -19.370911 34.238876 61.013874 101.543350
6 100.509819 12.039542 -7.992327 -21.930750 32.777496 56.381863 101.543350
[R_rear_hand03]
5 101.539970 5.215704 5.435467 77.523735 -62.710106 14.990743 101.819031
6 101.539970 5.215704 5.435467 79.009171 -58.663548 13.282337 101.819031
[Rope4_Seg01]
5 0.000010 0.000038 -0.000114 83.990730 35.901600 -51.358513 0.000121
6 0.000010 0.000038 -0.000114 87.708656 39.810524 -51.976997 0.000121
[Rope4_Seg02]
5 139.999985 0.000060 0.000119 5.994534 -10.369758 -11.534481 139.999985
6 139.999985 0.000060 0.000119 9.106874 -6.827870 -14.398346 139.999985
[Rope4_Seg03]
5 139.999924 0.000000 -0.000238 6.345799 -18.396839 -18.520948 139.999924
6 139.999924 0.000000 -0.000238 8.134969 -13.616249 -21.457333 139.999924
[Rope4_Seg04]
5 139.999985 0.000000 0.000119 4.239969 -22.889380 -25.919256 139.999985
6 139.999985 0.000000 0.000119 4.300573 -17.478884 -31.016794 139.999985
[Rope4_Seg05]
5 139.999802 -0.000060 -0.000119 1.011543 -7.532586 -1.636222 139.999802
6 139.999802 -0.000060 -0.000119 -0.755421 -7.407950 -7.011453 139.999802
[Rope4_Seg06]
5 139.999924 0.000000 0.000060 6.851193 0.762060 17.049545 139.999924
6 139.999924 0.000000 0.000060 5.688147 -3.793051 12.457892 139.999924
[Rope4_Seg07]
5 139.999802 0.000000 0.000000 3.772926 0.650267 13.837986 139.999802
6 139.999802 0.000000 0.000000 7.800735 -1.591699 26.975351 139.999802
[Rope4_Seg08]
5 139.999924 0.000000 0.000119 -0.010746 -0.106657 7.995454 139.999924
6 139.999924 0.000000 0.000119 0.568331 -0.967873 13.640269 139.999924
[Rope4_Seg09]
5 90.185791 0.000060 0.000060 -135.617828 2.228885 0.850567 90.185791
6 90.185791 0.000060 0.000060 -135.617828 2.228885 0.850567 90.185791
[L_rear_hand01]
5 101.696655 -8.392275 -7.654577 -28.015865 -27.942135 135.607544 102.329041
6 101.696655 -8.392275 -7.654577 -30.719053 -24.879360 141.681381 102.329041
[L_rear_hand02]
5 102.726799 -1.568258 5.773216 81.577332 47.415253 169.913025 102.900848
6 102.726799 -1.568258 5.773216 82.428497 41.230476 171.131027 102.900848
[L_rear_hand03]
5 104.552910 9.721220 -10.420293 -167.078079 -21.194328 -132.993347 105.519653
6 104.552910 9.721220 -10.420293 -164.822937 -19.676035 -139.457687 105.519653
